<svg width="376" height="701" viewBox="0 0 376 701" fill="none" xmlns="http://www.w3.org/2000/svg">
<g clip-path="url(#clip0_7_15)">
<path d="M375.41 236.4C375.21 241.4 372.2 249.78 356.6 256.83C355.6 268.71 343.5 361.83 330.69 460.34C319.61 545.5 308.15 633.57 304.49 664.67C304.324 666.18 303.613 667.577 302.49 668.6C276.22 692.18 231.75 700.4 189.55 700.4C172.597 700.397 155.669 699.11 138.91 696.55C124.75 694.36 77.71 685.78 66.71 667.12C66.2209 666.298 65.9299 665.374 65.86 664.42C65.01 653.24 57.62 584.92 49.07 505.83C33.84 365.06 23.07 264.83 23.24 257.1C23.24 257.04 23.24 256.98 23.24 256.92C15.82 252.56 11.04 246.48 10.09 239.7C9.44001 235.05 10.18 226.24 22.16 219.05C21.4933 216.423 20.8833 213.783 20.33 211.13C17.73 198.13 17.33 183.43 23.68 171.21C26.1845 165.854 29.6252 160.987 33.84 156.84C33.84 156.75 33.84 156.66 33.89 156.56C38.69 140.81 48.34 126.69 60.52 114.67C38.33 80.01 1.14001 20.02 0.750011 19.38C0.147962 18.4137 -0.0957356 17.2667 0.0614352 16.1391C0.218606 15.0115 0.766669 13.9749 1.61001 13.21C7.36281 8.23889 13.6954 3.98135 20.47 0.530025C21.409 0.050832 22.4781 -0.110738 23.5168 0.0695832C24.5554 0.249904 25.5075 0.762379 26.23 1.53002C31.23 6.86002 61.76 53.17 87.94 93.33C96.8 87.858 106.142 83.2086 115.85 79.44C123.17 76.32 131.21 72.76 135.85 66.66C139.48 62.44 138.29 57.3 137.36 51.91C132.98 31.91 146.36 14.64 164.2 6.91002C170.31 3.91002 188.31 2.63002 185.86 13.71C184.2 19.17 182.86 30.35 188.26 33.91C190.82 34.78 193.37 34.39 196.41 34.28C210.68 32.93 227.12 31.77 239.87 40.21C248.62 45.85 254.74 54.54 258.1 64.21C266.33 64.21 275.49 62.45 284.1 65.8C293.3 69.38 301.31 76.88 303.81 86.64C305.073 92.0633 305.226 97.686 304.26 103.17C320.79 102.06 338.06 111.17 344.36 126.83C347.93 135.58 347.9 144.83 345.69 153.71C345.807 153.774 345.92 153.844 346.03 153.92C352.26 158.54 355.5 163.92 359.21 170.04C362.42 175.678 365.063 181.62 367.1 187.78C369.19 194.25 370.8 201.3 370.1 208.24C369.575 212.841 368.375 217.339 366.54 221.59C372.42 225.36 375.63 230.6 375.41 236.4Z" fill="black"/>
<path d="M45.87 240.03C48.18 243.93 51.6 248.49 55.25 250.46C59.2 251.96 63.82 252.25 68.25 252.55C80.8 250.03 91.54 240.24 99.89 230.81C103.11 227.119 105.93 223.097 108.3 218.81C108.653 218.229 109.207 217.798 109.857 217.599C110.507 217.4 111.208 217.447 111.825 217.731C112.443 218.015 112.934 218.517 113.206 219.14C113.478 219.763 113.512 220.464 113.3 221.11C108.71 231.03 102.19 239.32 94.5 246.92C92.29 249.01 89.98 251.03 87.56 252.92C92.31 252.86 97.05 252.78 101.56 252.79C110.7 252.68 120.02 248.15 128.74 244.37C129.21 244.15 129.67 243.95 130.13 243.75C134.92 240.99 139.72 238.35 144.47 235.7C147.96 233.7 151.47 231.78 154.77 229.7C157.4 228.01 160.21 226.38 162.24 224.11C162.41 223.92 162.37 223.81 162.39 224.18C162.402 223.451 162.703 222.756 163.227 222.249C163.751 221.741 164.456 221.463 165.185 221.475C165.914 221.487 166.609 221.788 167.116 222.312C167.624 222.836 167.902 223.541 167.89 224.27C167.73 226.45 166.89 227.4 165.81 228.75C163.582 231.109 161.127 233.243 158.48 235.12C155.77 237.12 153 239.06 150.22 240.98C159.29 242.29 167.92 246.54 177.56 250.17C193.943 256.21 211.129 259.796 228.56 260.81C239.34 261.26 251.07 261.61 261.12 257.87L261.79 257.55L262.34 257.24C262.53 257.14 262.62 257.05 262.77 256.96C269.21 251.75 274.44 244.53 282.95 241.4C291.66 237.92 301.17 239.53 309.55 242.49C315.35 244.08 321.31 243.07 327.38 240.81C341.52 235.23 355.05 222.45 356.95 206.97C357.5 201.81 356.21 196.78 354.7 191.77C351.7 183.08 347.51 173.1 341.04 166.31C339.566 169.31 337.896 172.21 336.04 174.99C330.105 183.882 322.852 191.82 314.53 198.53C313.858 199.01 313.031 199.22 312.211 199.12C311.391 199.019 310.639 198.615 310.103 197.987C309.567 197.359 309.285 196.553 309.314 195.728C309.344 194.903 309.681 194.119 310.26 193.53C317.683 186.938 324.063 179.257 329.18 170.75C336.31 158.65 340.74 143.93 334.91 131.02C329.4 119.02 314.91 113.17 302.3 116.02C301.786 116.116 301.263 116.16 300.74 116.15C292.38 138.58 272.94 161.28 260.41 176.28C254.957 182.48 249.29 188.48 243.41 194.28C237.41 200.12 231.68 206.46 224.02 210.48C223.395 210.771 222.682 210.812 222.028 210.594C221.374 210.376 220.828 209.917 220.502 209.309C220.176 208.702 220.094 207.993 220.274 207.327C220.454 206.662 220.882 206.09 221.47 205.73C228 202 233.27 195.84 238.91 189.9C244.55 183.96 249.82 177.9 254.91 171.65C269.75 152.93 317.65 92.83 281.18 77.21C274.66 74.64 267.7 76.31 260.35 76.72C260.63 92.43 251.73 107.92 241.35 119.03C228.56 132.91 213.35 143.93 197.1 153.29C196.41 153.69 195.591 153.804 194.818 153.607C194.045 153.41 193.38 152.918 192.965 152.236C192.551 151.555 192.419 150.738 192.6 149.961C192.78 149.184 193.258 148.509 193.93 148.08C209.11 138.31 223.61 127.08 235.11 113.56C245.67 101.17 255.03 84.16 248.82 67.81C246.1 60.41 240.9 53.42 234.2 49.33C227.5 45.24 219.37 44.15 210.77 44.61C203.86 44.84 196.92 46.33 189.56 46.01C175.03 45.2 171.21 30.12 172.64 17.48C165.98 18.58 159.25 24.38 155.01 29.17C143.6 43.28 154.07 51.28 150.6 66.22C148.38 74.5 140.98 81.22 134.24 85.22C125.92 90.38 117.15 92.89 108.63 97.06C96.7125 102.787 85.6142 110.082 75.63 118.75C67.07 126.28 58.97 134.94 53.01 144.71L53.78 144.43C65.29 140.22 77.11 136.95 88.9 133.43C94.61 131.68 100.68 131.13 106.27 129.13C106.999 128.797 107.831 128.768 108.582 129.048C109.333 129.328 109.942 129.896 110.275 130.625C110.608 131.354 110.637 132.186 110.357 132.937C110.077 133.688 109.509 134.297 108.78 134.63C105.91 136.064 102.923 137.249 99.85 138.17C91.4497 141.196 83.2557 144.767 75.32 148.86C69.97 151.63 64.73 154.63 59.32 157.21C54.49 159.39 49.56 161.55 45.63 165.21C38.9163 171.218 34.5009 179.374 33.14 188.28C31.88 200.44 34.86 213.28 38.86 224.89C40.7044 230.15 43.052 235.22 45.87 240.03ZM227.99 234.18C232.22 221.01 246.94 213.91 258.29 209.06C262.929 206.845 267.088 203.739 270.53 199.92C274.07 196.04 277.02 191.57 278.19 186.83C278.243 186.302 278.408 185.792 278.674 185.333C278.94 184.873 279.301 184.476 279.732 184.168C280.164 183.859 280.656 183.646 281.177 183.543C281.697 183.44 282.233 183.449 282.75 183.57C287.48 184.83 286.13 194.22 285.26 197.57C283.696 202.938 280.948 207.886 277.218 212.052C273.489 216.217 268.873 219.494 263.71 221.64C251.88 226.41 241.55 228.29 231.89 236.74C231.49 237.081 230.99 237.283 230.465 237.316C229.941 237.349 229.42 237.21 228.98 236.922C228.541 236.634 228.207 236.21 228.028 235.716C227.85 235.222 227.836 234.683 227.99 234.18ZM81.07 188.33C94.07 158.02 139.23 148.56 163.44 129C167.512 125.818 171.203 122.177 174.44 118.15C177.663 114.042 180.28 109.492 182.21 104.64C182.496 103.895 183.043 103.281 183.75 102.912C184.458 102.543 185.275 102.445 186.049 102.637C186.823 102.828 187.501 103.296 187.954 103.953C188.407 104.609 188.605 105.408 188.51 106.2C187.725 112.319 185.763 118.228 182.73 123.6C173.83 139.36 157.15 149.81 141.81 157.6C122.75 167.86 100.41 174.25 87.16 191.6C86.6835 192.324 85.9533 192.844 85.1131 193.056C84.2729 193.269 83.3834 193.16 82.6198 192.75C81.8561 192.34 81.2736 191.659 80.9868 190.841C80.7 190.023 80.7296 189.127 81.07 188.33Z" fill="#F4F3F2"/>
<path d="M67.79 107.98C48.79 78.21 19.54 31.2 11.26 17.87C14.4849 15.3892 17.8725 13.1274 21.4 11.1C28.61 20.89 49.64 52.42 79.8 98.69C75.65 101.59 71.63 104.69 67.79 107.98Z" fill="#FF4716"/>
<path d="M294.29 253.41C297.95 253.41 302.16 254.73 305.8 255.89C306.954 256.215 308.126 256.472 309.31 256.66C300.2 258.16 290.31 259.37 279.91 260.31C284.07 256.39 288.38 253.06 294.29 253.41ZM34.14 248.28C30.851 243.006 28.1228 237.402 26 231.56C24 233.21 22.13 235.44 22.48 237.95C22.94 241.28 27.07 245.51 34.14 248.28ZM148.33 255.28C141.16 254.06 134.8 257.6 128.33 260.38C141.33 261.23 155.03 261.92 169.01 262.38C161.97 259.71 155.39 256.53 148.33 255.28ZM162.07 316.75C111.55 313.75 60.82 306.88 39.79 301.6C40.15 305.16 40.5333 308.883 40.94 312.77C58.23 320.54 112.71 327.63 173.67 329.77C245.99 332.28 306.07 327.68 336.56 317.45C337.227 312.217 337.86 307.233 338.46 302.5C316.46 310.79 279.17 318.5 216.7 318.5C200.3 318.47 182.16 317.94 162.07 316.75ZM69.58 579.85C72.22 604.43 74.45 625.37 76.01 640.35C89.68 651.82 127.42 661.07 169.63 662.88C220.39 665.07 266.71 656.63 294.82 640.25C296.82 623.92 299.56 602.79 302.64 578.86C269 593.28 228.07 598.58 189.39 598.58C138.51 598.58 91.47 589.44 69.62 579.85H69.58ZM250.68 274.6C249.39 274.74 248.1 274.87 246.79 274.98C241.74 275.3 236.71 275.36 231.69 275.22C224.27 275.38 216.78 275.46 209.26 275.46C136.38 275.46 61.26 268.31 35.96 261.99C36.42 267.83 37.45 278.55 38.89 292.8C53.2 296.8 103.39 304.97 163.51 308.47C209.83 311.17 292.98 312.61 339.62 293.05C341.41 278.87 342.75 267.93 343.49 261.47L342.38 261.79C319.99 269.13 287.01 273.03 250.72 274.6H250.68ZM360.27 232.43C355.168 239.122 348.809 244.754 341.55 249.01C358.74 243.95 362.81 237.89 362.89 235.9C362.92 234.97 362.07 233.69 360.27 232.43ZM335.39 326.58C330.58 364.04 324.39 411.77 318.26 458.73C313.32 496.73 308.26 535.33 303.93 569.19C255.93 591.45 194.93 591.45 162.21 589.38C118.64 586.62 81.99 577.73 68.57 570.13C66.4 549.94 63.99 527.68 61.48 504.48C54.79 442.63 47.16 372.01 41.95 322.08C66.66 330.81 122.75 336.34 173.41 338.08C186.41 338.53 199.04 338.75 211.19 338.75C264.68 338.77 308.9 334.47 335.39 326.58ZM184.77 671.63C140.6 671.63 98.41 663.63 77.16 651.19C77.62 655.84 77.97 659.42 78.16 661.79C83.76 668.94 105.08 678.65 140.76 684.17C193.12 692.26 259.76 688.06 292.31 660.79C292.67 657.79 293.09 654.31 293.57 650.47C264.58 665.37 223.9 671.63 184.77 671.63Z" fill="#FCF2E8"/>
<path d="M275.01 455.93C275.01 503.42 234.31 542.06 184.29 542.06C134.27 542.06 93.58 503.42 93.58 455.93C93.58 408.44 134.27 369.81 184.29 369.81C234.31 369.81 275.01 408.45 275.01 455.93Z" fill="#FF4716"/>
<path d="M227.99 234.18C232.22 221.01 246.94 213.91 258.29 209.06C262.929 206.845 267.088 203.739 270.53 199.92C274.07 196.04 277.02 191.57 278.19 186.83C278.243 186.302 278.408 185.792 278.674 185.333C278.94 184.873 279.301 184.476 279.732 184.168C280.164 183.859 280.656 183.646 281.177 183.543C281.697 183.44 282.233 183.449 282.75 183.57C287.48 184.83 286.13 194.22 285.26 197.57C283.696 202.938 280.948 207.886 277.218 212.052C273.489 216.217 268.873 219.494 263.71 221.64C251.88 226.41 241.55 228.29 231.89 236.74C231.49 237.081 230.99 237.283 230.465 237.316C229.941 237.349 229.42 237.21 228.98 236.922C228.541 236.634 228.207 236.21 228.028 235.716C227.85 235.222 227.836 234.683 227.99 234.18ZM87.07 191.55C100.32 174.2 122.66 167.81 141.72 157.55C157.06 149.81 173.72 139.36 182.64 123.55C185.673 118.178 187.635 112.269 188.42 106.15C188.515 105.358 188.317 104.559 187.864 103.903C187.411 103.246 186.733 102.778 185.959 102.587C185.185 102.395 184.368 102.493 183.66 102.862C182.953 103.231 182.406 103.845 182.12 104.59C180.19 109.442 177.573 113.992 174.35 118.1C171.113 122.127 167.422 125.768 163.35 128.95C139.14 148.51 93.99 157.95 80.98 188.28C80.6397 189.077 80.61 189.973 80.8968 190.791C81.1836 191.609 81.7661 192.29 82.5298 192.7C83.2934 193.11 84.1829 193.219 85.0231 193.006C85.8633 192.794 86.5935 192.274 87.07 191.55Z" fill="#666666"/>
</g>
<defs>
<clipPath id="clip0_7_15">
<rect width="375.42" height="700.4" fill="white"/>
</clipPath>
</defs>
</svg>
